<?xml version="1.0" encoding="UTF-8" standalone="no"?>
<!DOCTYPE svg PUBLIC "-//W3C//DTD SVG 1.1//EN" "http://www.w3.org/Graphics/SVG/1.1/DTD/svg11.dtd">
<svg width="100%" height="100%" viewBox="0 0 895 1091" version="1.1" xmlns="http://www.w3.org/2000/svg" xmlns:xlink="http://www.w3.org/1999/xlink" xml:space="preserve" xmlns:serif="http://www.serif.com/" style="fill-rule:evenodd;clip-rule:evenodd;stroke-linejoin:round;stroke-miterlimit:2;">
    <g transform="matrix(1,0,0,1,-323.292,-515.516)">
        <g transform="matrix(4.16667,0,0,4.16667,543.714,708.444)">
            <g transform="matrix(2.14245,0,0,2.14245,-52.9017,-46.3015)">
                <g transform="matrix(1,0,0,1,21.2319,34.2131)">
                    <path d="M0,62.388L-0.001,62.387C1.572,61.695 4.681,59.721 5.027,58.108C5.089,57.819 5.089,57.442 4.614,56.871C0.594,52.084 2.244,43.81 3.141,40.475L5.107,33.159C4.709,25.139 4.504,15.642 5.396,11.069C6.26,6.641 8.219,2.289 9.31,0.09L12.278,-5.892L-0.278,-3.435C-8.759,-2.258 -14.679,5.571 -13.503,14.053L-6.45,60.026C-6.006,63.223 -4.617,66.054 -2.606,68.28C-2.919,67.6 -3.071,66.916 -3.024,66.225C-2.879,63.977 -0.818,62.729 0,62.388" style="fill:rgb(213,214,215);fill-rule:nonzero;"/>
                </g>
                <g transform="matrix(1,0,0,1,68.3462,82.0526)">
                    <path d="M0,-31.679L-0.071,-30.382L-0.462,-30.234L-1.1,-28.118C-4.59,-16.538 -8.293,-7.436 -11.877,-1.607L-13.685,4.952C-14.031,6.21 -15.495,9.061 -18.784,11.763C-20.948,13.538 -22.456,16.799 -22.519,18.096C-20.452,18.696 -19.695,19.93 -19.422,20.644L-18.252,23.704L11.063,20.885C19.546,19.706 25.466,11.876 24.286,3.395L17.251,-47.278C16.817,-50.405 15.475,-53.179 13.533,-55.383L9.039,-50.542C6.48,-47.786 0.479,-40.433 0,-31.679" style="fill:rgb(213,214,215);fill-rule:nonzero;"/>
                </g>
                <g transform="matrix(0.861942,-0.507006,-0.507006,-0.861942,76.3318,29.0622)">
                    <path d="M-0.906,1.272L5.453,1.272C5.003,2.608 4.378,3.882 3.582,5.052C1.697,3.392 -0.465,1.98 -2.859,1.337C-2.234,1.295 -1.583,1.272 -0.906,1.272" style="fill:rgb(213,214,215);fill-rule:nonzero;"/>
                </g>
                <g transform="matrix(1,0,0,1,19.6265,111.148)">
                    <path d="M0,-87.651C-12.434,-85.814 -21.141,-74.145 -19.406,-61.626L-12.367,-15.758C-10.833,-4.704 -1.45,3.671 9.619,4.053C8.848,2.1 7.971,0.27 6.773,-1.302C-0.525,-2.825 -6.357,-8.821 -7.416,-16.446L-14.465,-62.385C-15.828,-72.229 -8.977,-81.319 0.818,-82.717L15.229,-85.537L16.806,-85.845L18.303,-86.138C19.334,-88.207 20.138,-90.074 20.727,-91.704L0,-87.651Z" style="fill:rgb(157,158,160);fill-rule:nonzero;"/>
                </g>
                <g transform="matrix(1,0,0,1,99.9663,45.9207)">
                    <path d="M0,38.613L-7.035,-12.057C-8.209,-20.523 -13.99,-27.415 -21.604,-30.358C-21.779,-28.844 -22.04,-27.095 -22.47,-25.297C-20.627,-24.463 -18.942,-23.328 -17.481,-21.951C-17.143,-21.633 -16.814,-21.303 -16.501,-20.959C-14.132,-18.356 -12.499,-15.057 -11.988,-11.371L-4.953,39.301C-4.291,44.062 -5.523,48.799 -8.422,52.634C-11.322,56.472 -15.543,58.949 -20.307,59.613L-20.412,59.625L-53.288,62.785C-53.293,62.797 -53.295,62.808 -53.301,62.819L-53.855,63.92L-55.088,63.92C-55.613,63.968 -57.555,64.898 -59.727,66.312L-60.225,66.636L-60.475,66.64C-60.778,66.73 -61.176,66.81 -61.635,66.81C-63.027,66.81 -64.586,66.203 -65.581,63.968L-65.931,64.002C-65.777,65.833 -65.588,67.504 -65.377,68.971L-19.811,64.59L-19.619,64.564C-13.529,63.718 -8.137,60.551 -4.434,55.65C-0.729,50.748 0.846,44.697 0,38.613" style="fill:rgb(157,158,160);fill-rule:nonzero;"/>
                </g>
                <g transform="matrix(1,0,0,1,53.4292,122.146)">
                    <path d="M0,-122.147C-0.35,-121.582 -0.719,-120.742 -0.432,-120.084C-0.18,-119.486 0.523,-119.186 1.686,-119.186C2.596,-119.186 3.781,-119.371 5.254,-119.733C8.166,-120.459 11.797,-121.354 14.988,-121.354C18.016,-121.354 20.178,-120.554 21.602,-118.904C23.322,-116.906 23.971,-113.569 23.521,-108.978C23.115,-104.785 22.268,-96.074 16.971,-92.888C13.834,-91.001 8.527,-88.938 8.473,-88.919L7.598,-88.58L8.518,-88.41C8.539,-88.408 9.172,-88.296 10.281,-88.296C12.686,-88.296 17.328,-88.815 22.844,-92.058C19.852,-88.835 13.779,-81.199 13.273,-71.943C12.48,-71.64 7.572,-70.662 3.588,-69.869C-5.85,-67.993 -5.875,-67.927 -5.957,-67.652C-5.826,-67.277 -5.684,-67.238 -5.291,-67.238C-4.045,-67.238 -0.404,-67.634 3.463,-68.041C7.174,-68.445 11.012,-68.85 12.256,-68.85C8.455,-56.239 4.426,-46.718 0.711,-41.297C0.408,-40.845 -2.449,-39.345 -4.963,-38.018C-10,-35.359 -11.354,-34.568 -11.326,-34.021L-11.309,-33.681L-11,-33.793C-10.576,-33.935 -9.875,-33.964 -9.299,-33.964C-8.947,-33.964 -8.568,-33.954 -8.16,-33.945C-7.697,-33.935 -7.207,-33.923 -6.705,-33.923C-4.428,-33.923 -1.906,-34.152 -0.342,-35.735C-0.602,-34.793 -1.891,-32.314 -4.783,-29.937C-7.381,-27.808 -9.641,-23.388 -9.182,-21.324C-9.047,-20.72 -8.678,-20.334 -8.127,-20.22C-6.676,-19.9 -6.182,-19.22 -6.02,-18.796C-6.424,-18.891 -7.092,-19.023 -7.775,-19.023C-8.352,-19.023 -8.838,-18.929 -9.236,-18.759C-9.434,-18.664 -9.576,-18.513 -9.641,-18.306C-9.84,-17.685 -9.309,-16.712 -8.795,-15.771C-8.523,-15.281 -8.117,-14.526 -8.197,-14.367C-9.785,-14.367 -13.795,-11.736 -13.939,-11.642C-13.943,-11.642 -14.275,-11.476 -14.744,-11.476C-15.846,-11.476 -17.689,-12.394 -17.715,-18.552C-17.793,-41.543 -13.381,-64.996 -4.576,-88.259L-5.035,-88.466C-11.525,-74.205 -16.148,-60.16 -18.77,-46.699L-20.453,-36.066C-22.598,-18.014 -20.572,-5.628 -19.076,0C-19.697,-1.433 -20.23,-2.931 -20.742,-4.412C-22.445,-9.209 -24.203,-14.168 -28.908,-17.081C-31.592,-18.74 -32.963,-20.316 -32.873,-21.634C-32.783,-23.019 -31.098,-23.755 -31.068,-23.764C-30.846,-23.858 -25.543,-26.291 -24.861,-29.467C-24.643,-30.494 -24.922,-31.474 -25.689,-32.4C-29.125,-36.49 -27.557,-44.08 -26.771,-47.001C-26.5,-44.974 -25.797,-41.138 -24.232,-40.422L-23.877,-40.271L-23.877,-41.863C-23.898,-42.128 -26.113,-68.199 -24.484,-76.543C-23.682,-80.662 -21.869,-84.744 -20.742,-87.015C-21.348,-84.103 -21.986,-78.834 -19.518,-76.25L-17.119,-73.743L-16.805,-74.619C-17.58,-77.984 -18.967,-86.242 -15.588,-92.142C-10.895,-100.325 -8.668,-107.093 -9.633,-110.251C-10.604,-113.4 -12.588,-115.492 -13.93,-116.613C-11.91,-115.775 -8.426,-113.691 -6.586,-108.912C-5.324,-105.652 -5.684,-102.041 -5.693,-102.003L-5.811,-100.91L-5.234,-101.834C-5.199,-101.9 -1.387,-108.121 -4.658,-114.464C-5.396,-115.906 -5.523,-117.236 -5.018,-118.404C-4.09,-120.544 -1.314,-121.704 0,-122.147" style="fill:rgb(157,158,160);fill-rule:nonzero;"/>
                </g>
            </g>
        </g>
    </g>
</svg>
